<svg xmlns="http://www.w3.org/2000/svg" xmlns:xlink="http://www.w3.org/1999/xlink" class="main-svg" width="1368" height="754"><rect x="0" y="0" width="1368" height="754" style="fill: rgb(238, 235, 234); fill-opacity: 1;"/><defs id="defs-f7ea3e"><g class="clips"><clipPath class="axesclip" id="clipf7ea3ex"><rect x="80" y="0" width="1090" height="754"/></clipPath><clipPath class="axesclip" id="clipf7ea3ey"><rect x="0" y="100" width="1368" height="574"/></clipPath><clipPath class="axesclip" id="clipf7ea3exy"><rect x="80" y="100" width="1090" height="574"/></clipPath></g></defs><g class="draglayer"><g transform="translate(80,100)"/></g><g class="subplot xy"><rect x="80" y="100" width="1090" height="574" style="stroke-width: 0px; fill: rgb(238, 235, 234); fill-opacity: 1;"/><g transform="translate(80,100)"><path class="xgrid crisp" d="M0,0v574" transform="translate(528.97,0)" style="stroke: rgb(255, 255, 255); stroke-opacity: 1; stroke-width: 1px;"/><path class="xgrid crisp" d="M0,0v574" transform="translate(1063.28,0)" style="stroke: rgb(255, 255, 255); stroke-opacity: 1; stroke-width: 1px;"/><path class="ygrid crisp" d="M0,0h1090" transform="translate(0,364.67)" style="stroke: rgb(255, 255, 255); stroke-opacity: 1; stroke-width: 1px;"/><path class="ygrid crisp" d="M0,0h1090" transform="translate(0,155.34)" style="stroke: rgb(255, 255, 255); stroke-opacity: 1; stroke-width: 1px;"/></g><g/><g transform="translate(80,100)"/><g/><svg preserveAspectRatio="none" x="80" y="100" width="1090" height="574" viewBox="0 0 1090 574" style="fill: none;"><g class="maplayer"/><g class="barlayer"><g class="trace bars" style="opacity: 0.7;"><g class="points"><path d="M1.5,574V489.22H9.19V574Z" style="stroke-width: 0.8px; fill: rgb(212, 189, 74); fill-opacity: 1; stroke: rgb(0, 0, 0); stroke-opacity: 1;"/><path d="M12.18,574V313.39H19.88V574Z" style="stroke-width: 0.8px; fill: rgb(212, 189, 74); fill-opacity: 1; stroke: rgb(0, 0, 0); stroke-opacity: 1;"/><path d="M22.87,574V28.7H30.56V574Z" style="stroke-width: 0.8px; fill: rgb(212, 189, 74); fill-opacity: 1; stroke: rgb(0, 0, 0); stroke-opacity: 1;"/><path d="M33.55,574V293.5H41.25V574Z" style="stroke-width: 0.8px; fill: rgb(212, 189, 74); fill-opacity: 1; stroke: rgb(0, 0, 0); stroke-opacity: 1;"/><path d="M44.24,574V348.97H51.94V574Z" style="stroke-width: 0.8px; fill: rgb(212, 189, 74); fill-opacity: 1; stroke: rgb(0, 0, 0); stroke-opacity: 1;"/><path d="M54.93,574V292.45H62.62V574Z" style="stroke-width: 0.8px; fill: rgb(212, 189, 74); fill-opacity: 1; stroke: rgb(0, 0, 0); stroke-opacity: 1;"/><path d="M65.61,574V402.35H73.31V574Z" style="stroke-width: 0.8px; fill: rgb(212, 189, 74); fill-opacity: 1; stroke: rgb(0, 0, 0); stroke-opacity: 1;"/><path d="M76.3,574V444.22H83.99V574Z" style="stroke-width: 0.8px; fill: rgb(212, 189, 74); fill-opacity: 1; stroke: rgb(0, 0, 0); stroke-opacity: 1;"/><path d="M86.99,574V436.89H94.68V574Z" style="stroke-width: 0.8px; fill: rgb(212, 189, 74); fill-opacity: 1; stroke: rgb(0, 0, 0); stroke-opacity: 1;"/><path d="M97.67,574V478.76H105.37V574Z" style="stroke-width: 0.8px; fill: rgb(212, 189, 74); fill-opacity: 1; stroke: rgb(0, 0, 0); stroke-opacity: 1;"/><path d="M108.36,574V477.71H116.05V574Z" style="stroke-width: 0.8px; fill: rgb(212, 189, 74); fill-opacity: 1; stroke: rgb(0, 0, 0); stroke-opacity: 1;"/><path d="M119.05,574V520.62H126.74V574Z" style="stroke-width: 0.8px; fill: rgb(212, 189, 74); fill-opacity: 1; stroke: rgb(0, 0, 0); stroke-opacity: 1;"/><path d="M129.73,574V514.34H137.43V574Z" style="stroke-width: 0.8px; fill: rgb(212, 189, 74); fill-opacity: 1; stroke: rgb(0, 0, 0); stroke-opacity: 1;"/><path d="M140.42,574V543.65H148.11V574Z" style="stroke-width: 0.8px; fill: rgb(212, 189, 74); fill-opacity: 1; stroke: rgb(0, 0, 0); stroke-opacity: 1;"/><path d="M151.1,574V526.9H158.8V574Z" style="stroke-width: 0.8px; fill: rgb(212, 189, 74); fill-opacity: 1; stroke: rgb(0, 0, 0); stroke-opacity: 1;"/><path d="M161.79,574V555.16H169.48V574Z" style="stroke-width: 0.8px; fill: rgb(212, 189, 74); fill-opacity: 1; stroke: rgb(0, 0, 0); stroke-opacity: 1;"/><path d="M172.48,574V554.11H180.17V574Z" style="stroke-width: 0.8px; fill: rgb(212, 189, 74); fill-opacity: 1; stroke: rgb(0, 0, 0); stroke-opacity: 1;"/><path d="M183.16,574V564.58H190.86V574Z" style="stroke-width: 0.8px; fill: rgb(212, 189, 74); fill-opacity: 1; stroke: rgb(0, 0, 0); stroke-opacity: 1;"/><path d="M193.85,574V559.35H201.54V574Z" style="stroke-width: 0.8px; fill: rgb(212, 189, 74); fill-opacity: 1; stroke: rgb(0, 0, 0); stroke-opacity: 1;"/><path d="M204.54,574V565.63H212.23V574Z" style="stroke-width: 0.8px; fill: rgb(212, 189, 74); fill-opacity: 1; stroke: rgb(0, 0, 0); stroke-opacity: 1;"/><path d="M215.22,574V566.67H222.92V574Z" style="stroke-width: 0.8px; fill: rgb(212, 189, 74); fill-opacity: 1; stroke: rgb(0, 0, 0); stroke-opacity: 1;"/><path d="M225.91,574V565.63H233.6V574Z" style="stroke-width: 0.8px; fill: rgb(212, 189, 74); fill-opacity: 1; stroke: rgb(0, 0, 0); stroke-opacity: 1;"/><path d="M236.59,574V566.67H244.29V574Z" style="stroke-width: 0.8px; fill: rgb(212, 189, 74); fill-opacity: 1; stroke: rgb(0, 0, 0); stroke-opacity: 1;"/><path d="M247.28,574V564.58H254.97V574Z" style="stroke-width: 0.8px; fill: rgb(212, 189, 74); fill-opacity: 1; stroke: rgb(0, 0, 0); stroke-opacity: 1;"/><path d="M257.97,574V562.49H265.66V574Z" style="stroke-width: 0.8px; fill: rgb(212, 189, 74); fill-opacity: 1; stroke: rgb(0, 0, 0); stroke-opacity: 1;"/><path d="M268.65,574V568.77H276.35V574Z" style="stroke-width: 0.8px; fill: rgb(212, 189, 74); fill-opacity: 1; stroke: rgb(0, 0, 0); stroke-opacity: 1;"/><path d="M279.34,574V564.58H287.03V574Z" style="stroke-width: 0.8px; fill: rgb(212, 189, 74); fill-opacity: 1; stroke: rgb(0, 0, 0); stroke-opacity: 1;"/><path d="M290.03,574V564.58H297.72V574Z" style="stroke-width: 0.8px; fill: rgb(212, 189, 74); fill-opacity: 1; stroke: rgb(0, 0, 0); stroke-opacity: 1;"/><path d="M300.71,574V569.81H308.41V574Z" style="stroke-width: 0.8px; fill: rgb(212, 189, 74); fill-opacity: 1; stroke: rgb(0, 0, 0); stroke-opacity: 1;"/><path d="M311.4,574V572.95H319.09V574Z" style="stroke-width: 0.8px; fill: rgb(212, 189, 74); fill-opacity: 1; stroke: rgb(0, 0, 0); stroke-opacity: 1;"/><path d="M322.08,574V569.81H329.78V574Z" style="stroke-width: 0.8px; fill: rgb(212, 189, 74); fill-opacity: 1; stroke: rgb(0, 0, 0); stroke-opacity: 1;"/><path d="M332.77,574V569.81H340.46V574Z" style="stroke-width: 0.8px; fill: rgb(212, 189, 74); fill-opacity: 1; stroke: rgb(0, 0, 0); stroke-opacity: 1;"/><path d="M343.46,574V571.91H351.15V574Z" style="stroke-width: 0.8px; fill: rgb(212, 189, 74); fill-opacity: 1; stroke: rgb(0, 0, 0); stroke-opacity: 1;"/><path d="M354.14,574V572.95H361.84V574Z" style="stroke-width: 0.8px; fill: rgb(212, 189, 74); fill-opacity: 1; stroke: rgb(0, 0, 0); stroke-opacity: 1;"/><path d="M364.83,574V572.95H372.52V574Z" style="stroke-width: 0.8px; fill: rgb(212, 189, 74); fill-opacity: 1; stroke: rgb(0, 0, 0); stroke-opacity: 1;"/><path d="M375.52,574V572.95H383.21V574Z" style="stroke-width: 0.8px; fill: rgb(212, 189, 74); fill-opacity: 1; stroke: rgb(0, 0, 0); stroke-opacity: 1;"/><path d="M396.89,574V571.91H404.58V574Z" style="stroke-width: 0.8px; fill: rgb(212, 189, 74); fill-opacity: 1; stroke: rgb(0, 0, 0); stroke-opacity: 1;"/><path d="M407.57,574V571.91H415.27V574Z" style="stroke-width: 0.8px; fill: rgb(212, 189, 74); fill-opacity: 1; stroke: rgb(0, 0, 0); stroke-opacity: 1;"/><path d="M418.26,574V572.95H425.95V574Z" style="stroke-width: 0.8px; fill: rgb(212, 189, 74); fill-opacity: 1; stroke: rgb(0, 0, 0); stroke-opacity: 1;"/><path d="M428.95,574V572.95H436.64V574Z" style="stroke-width: 0.8px; fill: rgb(212, 189, 74); fill-opacity: 1; stroke: rgb(0, 0, 0); stroke-opacity: 1;"/><path d="M450.32,574V572.95H458.01V574Z" style="stroke-width: 0.8px; fill: rgb(212, 189, 74); fill-opacity: 1; stroke: rgb(0, 0, 0); stroke-opacity: 1;"/><path d="M461.01,574V572.95H468.7V574Z" style="stroke-width: 0.8px; fill: rgb(212, 189, 74); fill-opacity: 1; stroke: rgb(0, 0, 0); stroke-opacity: 1;"/><path d="M471.69,574V571.91H479.39V574Z" style="stroke-width: 0.8px; fill: rgb(212, 189, 74); fill-opacity: 1; stroke: rgb(0, 0, 0); stroke-opacity: 1;"/><path d="M482.38,574V572.95H490.07V574Z" style="stroke-width: 0.8px; fill: rgb(212, 189, 74); fill-opacity: 1; stroke: rgb(0, 0, 0); stroke-opacity: 1;"/><path d="M503.75,574V571.91H511.45V574Z" style="stroke-width: 0.8px; fill: rgb(212, 189, 74); fill-opacity: 1; stroke: rgb(0, 0, 0); stroke-opacity: 1;"/><path d="M535.81,574V572.95H543.5V574Z" style="stroke-width: 0.8px; fill: rgb(212, 189, 74); fill-opacity: 1; stroke: rgb(0, 0, 0); stroke-opacity: 1;"/><path d="M610.61,574V572.95H618.31V574Z" style="stroke-width: 0.8px; fill: rgb(212, 189, 74); fill-opacity: 1; stroke: rgb(0, 0, 0); stroke-opacity: 1;"/><path d="M792.28,574V572.95H799.97V574Z" style="stroke-width: 0.8px; fill: rgb(212, 189, 74); fill-opacity: 1; stroke: rgb(0, 0, 0); stroke-opacity: 1;"/><path d="M1080.81,574V572.95H1088.5V574Z" style="stroke-width: 0.8px; fill: rgb(212, 189, 74); fill-opacity: 1; stroke: rgb(0, 0, 0); stroke-opacity: 1;"/></g></g></g><g class="errorlayer"><g class="errorbars"/></g><g class="boxlayer"/><g class="scatterlayer"/></svg><g/><path class="crisp" transform="translate(80,100)" d="M-1.5,574.75h1093" style="fill: none; stroke-width: 1.5px; stroke: rgb(152, 0, 0); stroke-opacity: 0.5;"/><path class="crisp" transform="translate(80,100)" d="M-0.75,-1.5v575.5" stroke-width="1.5px" style="fill: none; stroke: rgb(152, 0, 0); stroke-opacity: 0.5;"/><g/><g transform="translate(80,100)"><path class="xtick ticks crisp" d="M0,574v-6" transform="translate(528.97,0)" style="stroke: rgb(0, 0, 0); stroke-opacity: 0; stroke-width: 1px;"/><path class="xtick ticks crisp" d="M0,574v-6" transform="translate(1063.28,0)" style="stroke: rgb(0, 0, 0); stroke-opacity: 0; stroke-width: 1px;"/><g class="xtick" data-bb="5617"><text text-anchor="middle" x="0" y="592" transform="translate(528.97,0)" style="font-family: 'Times New Roman', Times, serif; font-size: 14px; fill: rgb(0, 0, 0); fill-opacity: 1; visibility: visible; white-space: pre;" data-bb="5614">50</text></g><g class="xtick" data-bb="5618"><text text-anchor="middle" x="0" y="592" transform="translate(1063.28,0)" style="font-family: 'Times New Roman', Times, serif; font-size: 14px; fill: rgb(0, 0, 0); fill-opacity: 1; visibility: visible; white-space: pre;" data-bb="5615">100</text></g></g><g transform="translate(80,100)"><path class="ytick ticks crisp" d="M0,0h6" transform="translate(0,364.67)" style="stroke: rgb(0, 0, 0); stroke-opacity: 0; stroke-width: 1px;"/><path class="ytick ticks crisp" d="M0,0h6" transform="translate(0,155.34)" style="stroke: rgb(0, 0, 0); stroke-opacity: 0; stroke-width: 1px;"/><g class="ytick" data-bb="5620"><text text-anchor="end" x="-4" y="7" transform="translate(0,574)" style="font-family: 'Times New Roman', Times, serif; font-size: 14px; fill: rgb(0, 0, 0); fill-opacity: 1; visibility: visible; white-space: pre;">0</text></g><g class="ytick" data-bb="5621"><text text-anchor="end" x="-4" y="7" transform="translate(0,364.67)" style="font-family: 'Times New Roman', Times, serif; font-size: 14px; fill: rgb(0, 0, 0); fill-opacity: 1; visibility: visible; white-space: pre;">200</text></g><g class="ytick" data-bb="5622"><text text-anchor="end" x="-4" y="7" transform="translate(0,155.34)" style="font-family: 'Times New Roman', Times, serif; font-size: 14px; fill: rgb(0, 0, 0); fill-opacity: 1; visibility: visible; white-space: pre;">400</text></g></g><g/></g><g class="shapelayer"/><g class="glimages"/><text class="js-plot-link-container" y="745" text-anchor="end" x="1361" style="font-family: 'Open Sans', Arial, sans-serif; font-size: 12px; fill: rgb(68, 68, 68); pointer-events: all;"><tspan class="js-link-to-tool"/><tspan class="js-link-spacer"/><tspan class="js-sourcelinks"/></text><g class="infolayer"><g class="g-gtitle"><text class="gtitle" x="684" y="50" text-anchor="middle" style="font-family: 'Times New Roman', Times, serif; font-size: 20px; fill: rgb(88, 74, 77); opacity: 1; white-space: pre; visibility: visible;">App Frequency vs Permissions requested</text></g><g class="g-xtitle" data-bb="5616"><text class="xtitle" x="625" y="726" text-anchor="middle" style="font-family: 'Times New Roman', Times, serif; font-size: 14px; fill: rgb(0, 0, 0); opacity: 1; white-space: pre; visibility: visible;">Number of Permissions requested</text></g><g class="g-ytitle" data-bb="5619"><text class="ytitle" transform="rotate(-90,42,387) translate(0, 0)" x="42" y="387" text-anchor="middle" style="font-family: 'Times New Roman', Times, serif; font-size: 14px; fill: rgb(0, 0, 0); opacity: 1; white-space: pre; visibility: visible;">App frequency</text></g><svg class="legend" x="1170" y="369" width="186" height="37"><rect class="bg" x="0" y="0" width="186" height="37" style="stroke: rgb(207, 206, 202); stroke-opacity: 1; fill: rgb(224, 221, 220); fill-opacity: 1; stroke-width: 0px;"/><g class="traces" transform="translate(0,18.200000000000003)" style="opacity: 1;"><g class="legendfill"/><g class="legendlines"/><g class="legendsymbols" style="opacity: 0.7;"><g class="legendpoints"><path class="legendbar" d="M6,6H-6V-6H6Z" transform="translate(20,0)" style="stroke-width: 0.8px; fill: rgb(212, 189, 74); fill-opacity: 1; stroke: rgb(0, 0, 0); stroke-opacity: 1;"/></g></g><text class="legendtext" x="40" y="7.0200000000000005" style="text-anchor: start; font-family: 'Courier New', monospace; font-size: 18px; fill: rgb(105, 100, 124); fill-opacity: 1; white-space: pre; visibility: visible;" data-bb="5623">App frequency</text><rect class="legendtoggle" pointer-events="all" x="0" y="-13.200000000000001" height="26.400000000000002" width="180.4375" style="cursor: pointer; fill: rgb(0, 0, 0); fill-opacity: 0;"/></g></svg></g></svg>