<svg xmlns="http://www.w3.org/2000/svg" xmlns:xlink="http://www.w3.org/1999/xlink" class="main-svg" width="1368" height="754"><rect x="0" y="0" width="1368" height="754" style="fill: rgb(255, 255, 255); fill-opacity: 1;"/><defs id="defs-d0e95c"><g class="clips"><clipPath class="axesclip" id="clipd0e95cx"><rect x="80" y="0" width="1113" height="754"/></clipPath><clipPath class="axesclip" id="clipd0e95cy"><rect x="0" y="100" width="1368" height="574"/></clipPath><clipPath class="axesclip" id="clipd0e95cxy"><rect x="80" y="100" width="1113" height="574"/></clipPath></g></defs><g class="draglayer"><g transform="translate(80,100)"/></g><g class="subplot xy"><rect x="80" y="100" width="1113" height="574" style="stroke-width: 0px; fill: rgb(255, 255, 255); fill-opacity: 1;"/><g transform="translate(80,100)"><path class="ygrid crisp" d="M0,0h1113" transform="translate(0,469.34)" style="stroke: rgb(238, 238, 238); stroke-opacity: 1; stroke-width: 1px;"/><path class="ygrid crisp" d="M0,0h1113" transform="translate(0,364.67)" style="stroke: rgb(238, 238, 238); stroke-opacity: 1; stroke-width: 1px;"/><path class="ygrid crisp" d="M0,0h1113" transform="translate(0,260.01)" style="stroke: rgb(238, 238, 238); stroke-opacity: 1; stroke-width: 1px;"/><path class="ygrid crisp" d="M0,0h1113" transform="translate(0,155.34)" style="stroke: rgb(238, 238, 238); stroke-opacity: 1; stroke-width: 1px;"/><path class="ygrid crisp" d="M0,0h1113" transform="translate(0,50.68)" style="stroke: rgb(238, 238, 238); stroke-opacity: 1; stroke-width: 1px;"/></g><g/><g transform="translate(80,100)"><path class="yzl zl crisp" d="M0,0h1113" transform="translate(0,574)" style="stroke: rgb(68, 68, 68); stroke-opacity: 1; stroke-width: 1px;"/></g><g/><svg preserveAspectRatio="none" x="80" y="100" width="1113" height="574" viewBox="0 0 1113 574" style="fill: none;"><g class="maplayer"/><g class="barlayer"><g class="trace bars" style="opacity: 1;"><g class="points"><path d="M1.09,574V489.22H9.82V574Z" style="stroke-width: 0px; fill: rgb(31, 119, 180); fill-opacity: 1;"/><path d="M12,574V313.39H20.73V574Z" style="stroke-width: 0px; fill: rgb(31, 119, 180); fill-opacity: 1;"/><path d="M22.91,574V28.7H31.64V574Z" style="stroke-width: 0px; fill: rgb(31, 119, 180); fill-opacity: 1;"/><path d="M33.83,574V293.5H42.56V574Z" style="stroke-width: 0px; fill: rgb(31, 119, 180); fill-opacity: 1;"/><path d="M44.74,574V348.97H53.47V574Z" style="stroke-width: 0px; fill: rgb(31, 119, 180); fill-opacity: 1;"/><path d="M55.65,574V292.45H64.38V574Z" style="stroke-width: 0px; fill: rgb(31, 119, 180); fill-opacity: 1;"/><path d="M66.56,574V402.35H75.29V574Z" style="stroke-width: 0px; fill: rgb(31, 119, 180); fill-opacity: 1;"/><path d="M77.47,574V444.22H86.2V574Z" style="stroke-width: 0px; fill: rgb(31, 119, 180); fill-opacity: 1;"/><path d="M88.39,574V436.89H97.11V574Z" style="stroke-width: 0px; fill: rgb(31, 119, 180); fill-opacity: 1;"/><path d="M99.3,574V478.76H108.03V574Z" style="stroke-width: 0px; fill: rgb(31, 119, 180); fill-opacity: 1;"/><path d="M110.21,574V477.71H118.94V574Z" style="stroke-width: 0px; fill: rgb(31, 119, 180); fill-opacity: 1;"/><path d="M121.12,574V520.62H129.85V574Z" style="stroke-width: 0px; fill: rgb(31, 119, 180); fill-opacity: 1;"/><path d="M132.03,574V514.34H140.76V574Z" style="stroke-width: 0px; fill: rgb(31, 119, 180); fill-opacity: 1;"/><path d="M142.94,574V543.65H151.67V574Z" style="stroke-width: 0px; fill: rgb(31, 119, 180); fill-opacity: 1;"/><path d="M153.86,574V526.9H162.59V574Z" style="stroke-width: 0px; fill: rgb(31, 119, 180); fill-opacity: 1;"/><path d="M164.77,574V555.16H173.5V574Z" style="stroke-width: 0px; fill: rgb(31, 119, 180); fill-opacity: 1;"/><path d="M175.68,574V554.11H184.41V574Z" style="stroke-width: 0px; fill: rgb(31, 119, 180); fill-opacity: 1;"/><path d="M186.59,574V564.58H195.32V574Z" style="stroke-width: 0px; fill: rgb(31, 119, 180); fill-opacity: 1;"/><path d="M197.5,574V559.35H206.23V574Z" style="stroke-width: 0px; fill: rgb(31, 119, 180); fill-opacity: 1;"/><path d="M208.41,574V565.63H217.14V574Z" style="stroke-width: 0px; fill: rgb(31, 119, 180); fill-opacity: 1;"/><path d="M219.33,574V566.67H228.06V574Z" style="stroke-width: 0px; fill: rgb(31, 119, 180); fill-opacity: 1;"/><path d="M230.24,574V565.63H238.97V574Z" style="stroke-width: 0px; fill: rgb(31, 119, 180); fill-opacity: 1;"/><path d="M241.15,574V566.67H249.88V574Z" style="stroke-width: 0px; fill: rgb(31, 119, 180); fill-opacity: 1;"/><path d="M252.06,574V564.58H260.79V574Z" style="stroke-width: 0px; fill: rgb(31, 119, 180); fill-opacity: 1;"/><path d="M262.97,574V562.49H271.7V574Z" style="stroke-width: 0px; fill: rgb(31, 119, 180); fill-opacity: 1;"/><path d="M273.89,574V568.77H282.61V574Z" style="stroke-width: 0px; fill: rgb(31, 119, 180); fill-opacity: 1;"/><path d="M284.8,574V564.58H293.53V574Z" style="stroke-width: 0px; fill: rgb(31, 119, 180); fill-opacity: 1;"/><path d="M295.71,574V564.58H304.44V574Z" style="stroke-width: 0px; fill: rgb(31, 119, 180); fill-opacity: 1;"/><path d="M306.62,574V569.81H315.35V574Z" style="stroke-width: 0px; fill: rgb(31, 119, 180); fill-opacity: 1;"/><path d="M317.53,574V572.95H326.26V574Z" style="stroke-width: 0px; fill: rgb(31, 119, 180); fill-opacity: 1;"/><path d="M328.44,574V569.81H337.17V574Z" style="stroke-width: 0px; fill: rgb(31, 119, 180); fill-opacity: 1;"/><path d="M339.36,574V569.81H348.09V574Z" style="stroke-width: 0px; fill: rgb(31, 119, 180); fill-opacity: 1;"/><path d="M350.27,574V571.91H359V574Z" style="stroke-width: 0px; fill: rgb(31, 119, 180); fill-opacity: 1;"/><path d="M361.18,574V572.95H369.91V574Z" style="stroke-width: 0px; fill: rgb(31, 119, 180); fill-opacity: 1;"/><path d="M372.09,574V572.95H380.82V574Z" style="stroke-width: 0px; fill: rgb(31, 119, 180); fill-opacity: 1;"/><path d="M383,574V572.95H391.73V574Z" style="stroke-width: 0px; fill: rgb(31, 119, 180); fill-opacity: 1;"/><path d="M404.83,574V571.91H413.56V574Z" style="stroke-width: 0px; fill: rgb(31, 119, 180); fill-opacity: 1;"/><path d="M415.74,574V571.91H424.47V574Z" style="stroke-width: 0px; fill: rgb(31, 119, 180); fill-opacity: 1;"/><path d="M426.65,574V572.95H435.38V574Z" style="stroke-width: 0px; fill: rgb(31, 119, 180); fill-opacity: 1;"/><path d="M437.56,574V572.95H446.29V574Z" style="stroke-width: 0px; fill: rgb(31, 119, 180); fill-opacity: 1;"/><path d="M459.39,574V572.95H468.11V574Z" style="stroke-width: 0px; fill: rgb(31, 119, 180); fill-opacity: 1;"/><path d="M470.3,574V572.95H479.03V574Z" style="stroke-width: 0px; fill: rgb(31, 119, 180); fill-opacity: 1;"/><path d="M481.21,574V571.91H489.94V574Z" style="stroke-width: 0px; fill: rgb(31, 119, 180); fill-opacity: 1;"/><path d="M492.12,574V572.95H500.85V574Z" style="stroke-width: 0px; fill: rgb(31, 119, 180); fill-opacity: 1;"/><path d="M513.94,574V571.91H522.67V574Z" style="stroke-width: 0px; fill: rgb(31, 119, 180); fill-opacity: 1;"/><path d="M546.68,574V572.95H555.41V574Z" style="stroke-width: 0px; fill: rgb(31, 119, 180); fill-opacity: 1;"/><path d="M623.06,574V572.95H631.79V574Z" style="stroke-width: 0px; fill: rgb(31, 119, 180); fill-opacity: 1;"/><path d="M808.56,574V572.95H817.29V574Z" style="stroke-width: 0px; fill: rgb(31, 119, 180); fill-opacity: 1;"/><path d="M1103.18,574V572.95H1111.91V574Z" style="stroke-width: 0px; fill: rgb(31, 119, 180); fill-opacity: 1;"/></g></g></g><g class="errorlayer"><g class="errorbars"/></g><g class="boxlayer"/><g class="scatterlayer"/></svg><g/><path class="crisp" transform="translate(80,100)" d="M-1,574.5h1115" style="fill: none; stroke-width: 1px; stroke: rgb(0, 0, 0); stroke-opacity: 0;"/><path class="crisp" transform="translate(80,100)" d="M-0.5,-1v575" stroke-width="1px" style="fill: none; stroke: rgb(0, 0, 0); stroke-opacity: 0;"/><g/><g transform="translate(80,100)"><g class="xtick" data-bb="4878"><text text-anchor="middle" x="0" y="590" transform="translate(212.78,0)" style="font-family: 'Open sans', verdana, arial, sans-serif; font-size: 14px; fill: rgb(68, 68, 68); fill-opacity: 1; visibility: visible; white-space: pre;" data-bb="4872">20</text></g><g class="xtick" data-bb="4879"><text text-anchor="middle" x="0" y="590" transform="translate(431.01,0)" style="font-family: 'Open sans', verdana, arial, sans-serif; font-size: 14px; fill: rgb(68, 68, 68); fill-opacity: 1; visibility: visible; white-space: pre;" data-bb="4873">40</text></g><g class="xtick" data-bb="4880"><text text-anchor="middle" x="0" y="590" transform="translate(649.25,0)" style="font-family: 'Open sans', verdana, arial, sans-serif; font-size: 14px; fill: rgb(68, 68, 68); fill-opacity: 1; visibility: visible; white-space: pre;" data-bb="4874">60</text></g><g class="xtick" data-bb="4881"><text text-anchor="middle" x="0" y="590" transform="translate(867.49,0)" style="font-family: 'Open sans', verdana, arial, sans-serif; font-size: 14px; fill: rgb(68, 68, 68); fill-opacity: 1; visibility: visible; white-space: pre;" data-bb="4875">80</text></g><g class="xtick" data-bb="4882"><text text-anchor="middle" x="0" y="590" transform="translate(1085.72,0)" style="font-family: 'Open sans', verdana, arial, sans-serif; font-size: 14px; fill: rgb(68, 68, 68); fill-opacity: 1; visibility: visible; white-space: pre;" data-bb="4876">100</text></g></g><g transform="translate(80,100)"><g class="ytick" data-bb="4884"><text text-anchor="end" x="-2" y="7" transform="translate(0,574)" style="font-family: 'Open sans', verdana, arial, sans-serif; font-size: 14px; fill: rgb(68, 68, 68); fill-opacity: 1; visibility: visible; white-space: pre;">0</text></g><g class="ytick" data-bb="4885"><text text-anchor="end" x="-2" y="7" transform="translate(0,469.34)" style="font-family: 'Open sans', verdana, arial, sans-serif; font-size: 14px; fill: rgb(68, 68, 68); fill-opacity: 1; visibility: visible; white-space: pre;">100</text></g><g class="ytick" data-bb="4886"><text text-anchor="end" x="-2" y="7" transform="translate(0,364.67)" style="font-family: 'Open sans', verdana, arial, sans-serif; font-size: 14px; fill: rgb(68, 68, 68); fill-opacity: 1; visibility: visible; white-space: pre;">200</text></g><g class="ytick" data-bb="4887"><text text-anchor="end" x="-2" y="7" transform="translate(0,260.01)" style="font-family: 'Open sans', verdana, arial, sans-serif; font-size: 14px; fill: rgb(68, 68, 68); fill-opacity: 1; visibility: visible; white-space: pre;">300</text></g><g class="ytick" data-bb="4888"><text text-anchor="end" x="-2" y="7" transform="translate(0,155.34)" style="font-family: 'Open sans', verdana, arial, sans-serif; font-size: 14px; fill: rgb(68, 68, 68); fill-opacity: 1; visibility: visible; white-space: pre;">400</text></g><g class="ytick" data-bb="4889"><text text-anchor="end" x="-2" y="7" transform="translate(0,50.68)" style="font-family: 'Open sans', verdana, arial, sans-serif; font-size: 14px; fill: rgb(68, 68, 68); fill-opacity: 1; visibility: visible; white-space: pre;">500</text></g></g><g/></g><g class="shapelayer"/><g class="glimages"/><text class="js-plot-link-container" y="745" text-anchor="end" x="1361" style="font-family: 'Open Sans', Arial, sans-serif; font-size: 12px; fill: rgb(68, 68, 68); pointer-events: all;"><tspan class="js-link-to-tool"/><tspan class="js-link-spacer"/><tspan class="js-sourcelinks"/></text><g class="infolayer"><g class="g-gtitle"><text class="gtitle" x="684" y="50" text-anchor="middle" style="font-family: 'Open sans', verdana, arial, sans-serif; font-size: 20px; fill: rgb(68, 68, 68); opacity: 1; white-space: pre; visibility: visible;">App Frequency vs Permissions requested</text></g><g class="g-xtitle" data-bb="4877"><text class="xtitle" x="636.5" y="732" text-anchor="middle" style="font-family: 'Open sans', verdana, arial, sans-serif; font-size: 16px; fill: rgb(68, 68, 68); opacity: 1; white-space: pre; visibility: visible;">Number of Permissions requested</text></g><g class="g-ytitle" data-bb="4883"><text class="ytitle" transform="rotate(-90,38,387) translate(0, 0)" x="38" y="387" text-anchor="middle" style="font-family: 'Open sans', verdana, arial, sans-serif; font-size: 16px; fill: rgb(68, 68, 68); opacity: 1; white-space: pre; visibility: visible;">App frequency</text></g><svg class="legend" x="1215" y="100" width="141" height="32"><rect class="bg" x="0" y="0" width="141" height="32" style="stroke: rgb(68, 68, 68); stroke-opacity: 1; fill: rgb(255, 255, 255); fill-opacity: 1; stroke-width: 0px;"/><g class="traces" transform="translate(0,15.6)" style="opacity: 1;"><g class="legendfill"/><g class="legendlines"/><g class="legendsymbols" style="opacity: 1;"><g class="legendpoints"><path class="legendbar" d="M6,6H-6V-6H6Z" transform="translate(20,0)" style="stroke-width: 0px; fill: rgb(31, 119, 180); fill-opacity: 1;"/></g></g><text class="legendtext" x="40" y="5.46" style="text-anchor: start; font-family: 'Open sans', verdana, arial, sans-serif; font-size: 14px; fill: rgb(68, 68, 68); fill-opacity: 1; white-space: pre; visibility: visible;" data-bb="4890">App frequency</text><rect class="legendtoggle" pointer-events="all" x="0" y="-10.6" height="21.2" width="135.3125" style="cursor: pointer; fill: rgb(0, 0, 0); fill-opacity: 0;"/></g></svg></g></svg>